<mxfile host="app.diagrams.net" modified="2024-04-03T13:20:46.682Z" agent="Mozilla/5.0 (Windows NT 10.0; Win64; x64) AppleWebKit/537.36 (KHTML, like Gecko) Chrome/123.0.0.0 Safari/537.36" etag="NUsFQhhmBLfWEpeaZ60p" version="24.2.1" type="google">
  <diagram name="Page-1" id="5ntPVB_97ZrFU9Vp9UJ8">
    <mxGraphModel grid="1" page="1" gridSize="10" guides="1" tooltips="1" connect="1" arrows="1" fold="1" pageScale="1" pageWidth="850" pageHeight="1100" math="0" shadow="0">
      <root>
        <mxCell id="0" />
        <mxCell id="1" parent="0" />
        <mxCell id="MFNU_uDkxf_7tG3ohajR-5" value="" style="edgeStyle=orthogonalEdgeStyle;rounded=0;orthogonalLoop=1;jettySize=auto;html=1;" edge="1" parent="1" source="MFNU_uDkxf_7tG3ohajR-1" target="MFNU_uDkxf_7tG3ohajR-2">
          <mxGeometry relative="1" as="geometry" />
        </mxCell>
        <mxCell id="MFNU_uDkxf_7tG3ohajR-1" value="&lt;b style=&quot;font-size: 13px;&quot;&gt;Pre-processing&lt;br&gt;Module&lt;/b&gt;" style="rounded=0;whiteSpace=wrap;html=1;fillColor=#dae8fc;strokeColor=#6c8ebf;" vertex="1" parent="1">
          <mxGeometry x="120" y="230" width="110" height="110" as="geometry" />
        </mxCell>
        <mxCell id="MFNU_uDkxf_7tG3ohajR-6" value="" style="edgeStyle=orthogonalEdgeStyle;rounded=0;orthogonalLoop=1;jettySize=auto;html=1;" edge="1" parent="1" source="MFNU_uDkxf_7tG3ohajR-2" target="MFNU_uDkxf_7tG3ohajR-3">
          <mxGeometry relative="1" as="geometry" />
        </mxCell>
        <mxCell id="MFNU_uDkxf_7tG3ohajR-2" value="&lt;b&gt;&lt;font style=&quot;font-size: 13px;&quot;&gt;Model&lt;/font&gt;&lt;/b&gt;" style="whiteSpace=wrap;html=1;aspect=fixed;fillColor=#d5e8d4;strokeColor=#82b366;" vertex="1" parent="1">
          <mxGeometry x="300" y="230" width="110" height="110" as="geometry" />
        </mxCell>
        <mxCell id="MFNU_uDkxf_7tG3ohajR-23" style="edgeStyle=orthogonalEdgeStyle;rounded=0;orthogonalLoop=1;jettySize=auto;html=1;exitX=1;exitY=0.5;exitDx=0;exitDy=0;entryX=1;entryY=0.25;entryDx=0;entryDy=0;" edge="1" parent="1" source="MFNU_uDkxf_7tG3ohajR-3" target="MFNU_uDkxf_7tG3ohajR-4">
          <mxGeometry relative="1" as="geometry">
            <Array as="points">
              <mxPoint x="650" y="285" />
              <mxPoint x="650" y="418" />
            </Array>
          </mxGeometry>
        </mxCell>
        <mxCell id="MFNU_uDkxf_7tG3ohajR-28" value="Prediction" style="edgeLabel;html=1;align=center;verticalAlign=middle;resizable=0;points=[];fontSize=12;" connectable="0" vertex="1" parent="MFNU_uDkxf_7tG3ohajR-23">
          <mxGeometry x="-0.7941" y="1" relative="1" as="geometry">
            <mxPoint x="34" y="-14" as="offset" />
          </mxGeometry>
        </mxCell>
        <mxCell id="MFNU_uDkxf_7tG3ohajR-33" style="edgeStyle=orthogonalEdgeStyle;rounded=0;orthogonalLoop=1;jettySize=auto;html=1;exitX=1;exitY=0.5;exitDx=0;exitDy=0;" edge="1" parent="1" source="MFNU_uDkxf_7tG3ohajR-3">
          <mxGeometry relative="1" as="geometry">
            <mxPoint x="780" y="285" as="targetPoint" />
          </mxGeometry>
        </mxCell>
        <mxCell id="MFNU_uDkxf_7tG3ohajR-3" value="&lt;font style=&quot;font-size: 13px;&quot;&gt;&lt;b&gt;Post-processing&lt;br&gt;module&lt;/b&gt;&lt;/font&gt;" style="whiteSpace=wrap;html=1;aspect=fixed;fillColor=#dae8fc;strokeColor=#6c8ebf;" vertex="1" parent="1">
          <mxGeometry x="480" y="230" width="110" height="110" as="geometry" />
        </mxCell>
        <mxCell id="MFNU_uDkxf_7tG3ohajR-29" value="" style="edgeStyle=orthogonalEdgeStyle;rounded=0;orthogonalLoop=1;jettySize=auto;html=1;" edge="1" parent="1" source="MFNU_uDkxf_7tG3ohajR-4" target="MFNU_uDkxf_7tG3ohajR-8">
          <mxGeometry relative="1" as="geometry" />
        </mxCell>
        <mxCell id="MFNU_uDkxf_7tG3ohajR-4" value="&lt;b&gt;&lt;font style=&quot;font-size: 13px;&quot;&gt;Loss Function&lt;/font&gt;&lt;/b&gt;" style="whiteSpace=wrap;html=1;aspect=fixed;fillColor=#fff2cc;strokeColor=#d6b656;" vertex="1" parent="1">
          <mxGeometry x="480" y="390" width="110" height="110" as="geometry" />
        </mxCell>
        <mxCell id="MFNU_uDkxf_7tG3ohajR-22" value="" style="edgeStyle=orthogonalEdgeStyle;rounded=0;orthogonalLoop=1;jettySize=auto;html=1;" edge="1" parent="1" source="MFNU_uDkxf_7tG3ohajR-8" target="MFNU_uDkxf_7tG3ohajR-2">
          <mxGeometry relative="1" as="geometry" />
        </mxCell>
        <mxCell id="MFNU_uDkxf_7tG3ohajR-8" value="&lt;span style=&quot;font-size: 13px;&quot;&gt;&lt;b&gt;Optimizer&lt;/b&gt;&lt;/span&gt;" style="rounded=0;whiteSpace=wrap;html=1;fillColor=#fff2cc;strokeColor=#d6b656;" vertex="1" parent="1">
          <mxGeometry x="300" y="390" width="110" height="110" as="geometry" />
        </mxCell>
        <mxCell id="MFNU_uDkxf_7tG3ohajR-13" value="" style="edgeStyle=orthogonalEdgeStyle;rounded=0;orthogonalLoop=1;jettySize=auto;html=1;" edge="1" parent="1" source="MFNU_uDkxf_7tG3ohajR-12" target="MFNU_uDkxf_7tG3ohajR-1">
          <mxGeometry relative="1" as="geometry" />
        </mxCell>
        <mxCell id="MFNU_uDkxf_7tG3ohajR-25" value="Raw Data" style="edgeLabel;html=1;align=center;verticalAlign=middle;resizable=0;points=[];fontSize=12;" connectable="0" vertex="1" parent="MFNU_uDkxf_7tG3ohajR-13">
          <mxGeometry x="-0.175" y="4" relative="1" as="geometry">
            <mxPoint y="-11" as="offset" />
          </mxGeometry>
        </mxCell>
        <mxCell id="MFNU_uDkxf_7tG3ohajR-24" style="edgeStyle=orthogonalEdgeStyle;rounded=0;orthogonalLoop=1;jettySize=auto;html=1;entryX=1;entryY=0.75;entryDx=0;entryDy=0;" edge="1" parent="1" source="MFNU_uDkxf_7tG3ohajR-12" target="MFNU_uDkxf_7tG3ohajR-4">
          <mxGeometry relative="1" as="geometry">
            <Array as="points">
              <mxPoint x="24" y="200" />
              <mxPoint x="720" y="200" />
              <mxPoint x="720" y="473" />
            </Array>
          </mxGeometry>
        </mxCell>
        <mxCell id="MFNU_uDkxf_7tG3ohajR-27" value="Label" style="edgeLabel;html=1;align=center;verticalAlign=middle;resizable=0;points=[];fontSize=12;" connectable="0" vertex="1" parent="MFNU_uDkxf_7tG3ohajR-24">
          <mxGeometry x="-0.6232" y="4" relative="1" as="geometry">
            <mxPoint x="-106" y="-10" as="offset" />
          </mxGeometry>
        </mxCell>
        <mxCell id="MFNU_uDkxf_7tG3ohajR-12" value="" style="verticalLabelPosition=bottom;aspect=fixed;html=1;shape=mxgraph.salesforce.data;" vertex="1" parent="1">
          <mxGeometry y="255" width="48.6" height="60" as="geometry" />
        </mxCell>
        <mxCell id="ZvkAPoF-RJFS0DCV_loY-3" style="edgeStyle=orthogonalEdgeStyle;rounded=0;orthogonalLoop=1;jettySize=auto;html=1;exitX=1;exitY=0.5;exitDx=0;exitDy=0;" edge="1" parent="1" source="ZvkAPoF-RJFS0DCV_loY-2">
          <mxGeometry relative="1" as="geometry">
            <mxPoint x="1020" y="285" as="targetPoint" />
          </mxGeometry>
        </mxCell>
        <mxCell id="ZvkAPoF-RJFS0DCV_loY-4" value="Decision" style="edgeLabel;html=1;align=center;verticalAlign=middle;resizable=0;points=[];fontSize=12;" connectable="0" vertex="1" parent="ZvkAPoF-RJFS0DCV_loY-3">
          <mxGeometry x="0.2797" relative="1" as="geometry">
            <mxPoint x="-20" y="-15" as="offset" />
          </mxGeometry>
        </mxCell>
        <mxCell id="ZvkAPoF-RJFS0DCV_loY-2" value="&lt;span style=&quot;font-size: 13px;&quot;&gt;&lt;b&gt;Decision&lt;br&gt;Policy&amp;nbsp;&lt;br&gt;Module&lt;/b&gt;&lt;/span&gt;" style="whiteSpace=wrap;html=1;aspect=fixed;fillColor=#dae8fc;strokeColor=#6c8ebf;" vertex="1" parent="1">
          <mxGeometry x="780" y="230" width="110" height="110" as="geometry" />
        </mxCell>
      </root>
    </mxGraphModel>
  </diagram>
</mxfile>
